<?xml version="1.0" encoding="UTF-8" standalone="no"?>
<svg
   xmlns:dc="http://purl.org/dc/elements/1.1/"
   xmlns:cc="http://creativecommons.org/ns#"
   xmlns:rdf="http://www.w3.org/1999/02/22-rdf-syntax-ns#"
   xmlns:svg="http://www.w3.org/2000/svg"
   xmlns="http://www.w3.org/2000/svg"
   xmlns:sodipodi="http://sodipodi.sourceforge.net/DTD/sodipodi-0.dtd"
   xmlns:inkscape="http://www.inkscape.org/namespaces/inkscape"
   id="Layer_2"
   data-name="Layer 2"
   viewBox="0 0 1001.8 1282.93"
   version="1.1"
   sodipodi:docname="Myrmey_2Rev1.svg"
   inkscape:export-filename="/home/kamron/Pictures/Project Myrmey/Myrmey_2.png"
   inkscape:export-xdpi="93.516968"
   inkscape:export-ydpi="93.516968"
   inkscape:version="0.92.2 (unknown)">
  <metadata
     id="metadata63">
    <rdf:RDF>
      <cc:Work
         rdf:about="">
        <dc:format>image/svg+xml</dc:format>
        <dc:type
           rdf:resource="http://purl.org/dc/dcmitype/StillImage" />
        <dc:title>Myrmey_2_Color</dc:title>
      </cc:Work>
    </rdf:RDF>
  </metadata>
  <sodipodi:namedview
     pagecolor="#ffffff"
     bordercolor="#666666"
     borderopacity="1"
     objecttolerance="10"
     gridtolerance="10"
     guidetolerance="10"
     inkscape:pageopacity="0"
     inkscape:pageshadow="2"
     inkscape:window-width="1920"
     inkscape:window-height="1056"
     id="namedview61"
     showgrid="false"
     inkscape:zoom="0.52030023"
     inkscape:cx="1003.8325"
     inkscape:cy="763.50551"
     inkscape:window-x="1920"
     inkscape:window-y="24"
     inkscape:window-maximized="1"
     inkscape:current-layer="Layer_2" />
  <defs
     id="defs4">
    <style
       id="style2">.cls-1{fill:#c6c4c4;}.cls-1,.cls-2,.cls-3,.cls-4,.cls-5,.cls-6,.cls-7{stroke:#231f20;}.cls-1,.cls-2,.cls-3,.cls-5,.cls-6,.cls-7{stroke-linecap:round;stroke-linejoin:round;stroke-width:6px;}.cls-2{fill:#fff;}.cls-3{fill:none;}.cls-4,.cls-8{fill:#231f20;}.cls-4{stroke-miterlimit:10;}.cls-5{fill:#a09f9f;}.cls-6{fill:#0065a5;}.cls-7{fill:#fed206;}</style>
  </defs>
  <title
     id="title6">Myrmey_2_Color</title>
  <path
     class="cls-1"
     d="M688.15,1130.34c-5.12,3.49-12.07,10.28-20.26,21.51-23.33,32-52,88.67-76.67,79.33s-49.33-64-13.33-138c6-10.67-4.67-5.33-20.67,2s-181.33,58.67-175.33-5.33c2-12.67-4.67-2-19.33,1.33s-136,31.33-155.33-16.67c-4-12.67,16.67-44,54.67-54.67,10.67-3.33,4.67-8-7.33-18s-82-110-27.33-185.33c8.67-10-3.33-4-9.33-3.33s-49.33,3.33-24-35.33,41.33-67.33,49.33-86.67-.67-11.33-12,3.33-65.67,116-125.67,99-46.49-234.51,66-434h0a2.83,2.83,0,0,0,.6-3.51c-11.66-21-18.6-47.38-18.6-76,0-68.76,40.07-124.5,89.5-124.5A67.38,67.38,0,0,1,273.74,163l3.43.87a9.46,9.46,0,0,0,10.07-3.73C301.6,139.76,356,66.77,415.15,43.63c47.12-17.5,48.32,21.79,17.71,52.8a4.54,4.54,0,0,0,3.76,7.7c32.76-3.71,68,1.53,89,8.07a20.32,20.32,0,0,0,18.69-3.58c26.27-21,66-58,103.28-50,39,8.36,31.44,55.51-3.47,101.84a18,18,0,0,0-.37,21.17c24.42,34.69,69.86,126,105.84,328.47,21,34.5,49.5,118.49,15,220.49-10.87,79.91,75.13,109.91,126.13,127.91s160.79,155-72.21,269c-13,8-5.33-31.67,5.33-49.67s-2.67-8-22.67,9.33-74,70.67-99.33,102-45.33-8.67-8-51.33C700.82,1128.75,697.63,1123.88,688.15,1130.34Z"
     id="path8" />
  <ellipse
     class="cls-2"
     cx="378.08"
     cy="271.47"
     rx="89.5"
     ry="118"
     id="ellipse10" />
  <path
     class="cls-2"
     d="M288.58,271.47c0-28.42,7.62-54.49,20.32-74.86-16.35-24.68-39.79-40.14-65.82-40.14-49.43,0-89.5,55.74-89.5,124.5s40.07,124.5,89.5,124.5c29.45,0,55.58-19.79,71.89-50.33C298.67,333.77,288.58,304.17,288.58,271.47Z"
     id="path12" />
  <path
     class="cls-3"
     d="m 231.25,695.47 c -11.33,14.67 -65.67,116 -125.67,99 -60,-17 -46.49,-234.51 66,-434 v 0 c 1.00326,-0.8818 1.25339,-2.34501 0.6,-3.51 -11.66,-21 -18.6,-47.38 -18.6,-76 0,-68.76 40.07,-124.5 89.5,-124.5 10.6797,0.0464 21.1954,2.63078 30.68,7.54 l 3.43,0.87 c 3.80846,0.96849 7.81934,-0.51569 10.08,-3.73 14.35,-20.42 60.23602,-77.950965 127.9,-116.55 51.66,-19.19 48.13,29.88 8,61.47 -0.42075,0.38764 -0.0856,1.08582 0.48,1 36.08,-7.08 78.14,-1.34 102,6.08 6.4383,1.97791 13.43832,0.63708 18.69,-3.58 26.27,-21 66,-58 103.29,-50 39,8.36 31.44,55.51 -3.47,101.84 -4.69947,6.23034 -4.84888,14.77925 -0.37,21.17 24.42,34.69 69.86,126 105.84,328.47"
     id="path14"
     inkscape:connector-curvature="0"
     style="fill:none;stroke:#231f20;stroke-width:6px;stroke-linecap:round;stroke-linejoin:round"
     sodipodi:nodetypes="cscccsccccccccccccc" />
  <path
     class="cls-3"
     d="M577.91,1094.14c6-10.67-4.67-5.33-20.67,2s-181.33,58.67-175.33-5.33c2-12.67-4.67-2-19.33,1.33s-136,31.33-155.33-16.67c-4-12.67,16.67-44,54.67-54.67,10.67-3.33,4.67-8-7.33-18s-82-110-27.33-185.33c8.67-10-3.33-4-9.33-3.33s-49.33,3.33-24-35.33c14.48-22.1,25.91-40.94,34.54-56.63"
     id="path16" />
  <path
     class="cls-3"
     d="M517,389.47s8.55,61-58.45,94-180.67,136-227.33,212"
     id="path18" />
  <path
     class="cls-3"
     d="M480.58,362.47s23,56,81,8"
     id="path20" />
  <path
     class="cls-3"
     d="M511,1028.47s-84.55-2.85-131.49,56.58"
     id="path22" />
  <path
     class="cls-3"
     d="M265.47,1012.57s53.66,62.66,118.39,67.28"
     id="path24" />
  <path
     class="cls-4"
     d="M186.61,756.9a11.23,11.23,0,0,0,2.78-8.95c-3.12-24-18.23-20.26-24.32-17-6.5,3.5-11.5,6.5-11.5-4.5-1-19-10.5-29-23-32.5s-35,14.5-43.5,22.5A15.47,15.47,0,0,1,78,720.95a7,7,0,0,0-6.11,7.69c3.85,36.58,15.33,60.62,33.71,65.83C135.56,803,164.12,781.92,186.61,756.9Z"
     id="path26" />
  <path
     class="cls-4"
     d="M241,98.78a8.56,8.56,0,0,0,7.29-9.69c-1.44-9.81-7.12-24.47-27.71-29.62-32-8-48,47-44,63s16,17,29,0C216.28,108.48,229,100.58,241,98.78Z"
     id="path28" />
  <path
     class="cls-4"
     d="M467.16,181.79a14.58,14.58,0,0,0,4.85,9.27c4.34,3.69,10.82,4.16,14.57-19.59,6-38,4-69-26-67s-43,25-22,35C458.28,148.85,464.78,163.51,467.16,181.79Z"
     id="path30" />
  <path
     class="cls-3"
     d="M436.44,105.51S384.87,111,341.87,143"
     id="path32" />
  <path
     class="cls-5"
     d="M962.53,979.5c7.75-55.25-25-103-73.2-125.66-46.49-21.84-94.42-54.77-125.93-96.29-4.84,38.29-14.92,105.34-28.85,131.87-6.08,11.59-17.72,20.43-32.5,31.51l-.24.66c-12.22,9.18-26.74,19.82-42.12,34.89-26,26-54.33,64.95-78.13,131,.08,1-.43,2.47-1.67,4.68-36,74-11.33,128.67,13.33,138,8.42,3.19,17.31-1.32,26.29-9.91,16.69-17,33.61-47.19,48.4-67.46a120.67,120.67,0,0,1,13.84-16.21,57.49,57.49,0,0,1,8.4-7.26c9.48-6.46,12.67-1.58,5.74,7.51-35,39.94-19.65,77.55,3.23,56.48.92-1,1.85-2,2.79-3.18,15.47-19.14,41.63-46.47,64.22-68.81,15.18-15.07,29-28.09,37.1-35.15,20-17.33,33.33-27.33,22.67-9.33s-18.33,57.67-5.33,49.67c60.81-29.75,98.55-61.3,120.24-92C951.88,1018,959.69,999.77,962.53,979.5Z"
     id="path34" />
  <ellipse
     class="cls-4"
     cx="372.58"
     cy="277.47"
     rx="26"
     ry="44"
     id="ellipse36" />
  <ellipse
     class="cls-4"
     cx="241.58"
     cy="277.47"
     rx="26"
     ry="44"
     id="ellipse38" />
  <path
     class="cls-6"
     d="M764.64,730.6c34.06-100.7,6.71-183.85-14.2-219.15l-.78-.38c-45.37-27.89-107.48,15.21-142.77,42-45.84,34.81-85.65,76.15-143.65,90.18-56.69,13.72-115.64,1.85-161.43-34.69-20.89,20-46,52.63-64.76,78.73,8.11-9.47,12.73-12,6.18,3.86-8,19.33-24,48-49.33,86.67s18,36,24,35.33,18-6.67,9.33,3.33a106.34,106.34,0,0,0-14.29,27.13l4.83,1.86S369.09,965.91,688.65,924a292.75,292.75,0,0,0,49.12-13.15c12.34-4.61,22.24-17.36,22.58-28.84.5-17.27,1.27-125.23,1.76-144.91"
     id="path40" />
  <path
     class="cls-7"
     d="M 511.43811,859.62972 495.13105,732.75813 a 14.492166,14.492166 0 0 0 -12.14718,-12.17414 l -44.02456,-6.49587 a 14.375366,14.375366 0 0 0 -12.47962,4.22277 l -37.80721,41.23933 -11.087,-43.78198 a 14.375366,14.375366 0 0 0 -11.76983,-10.69168 l -16.23518,-2.51569 a 14.375366,14.375366 0 0 0 -15.62423,9.0475 L 288.41328,829.5313 a 14.375366,14.375366 0 0 0 10.05377,19.18213 l 17.07075,4.13292 a 14.375366,14.375366 0 0 0 3.37821,0.4043 v 0 a 14.375366,14.375366 0 0 0 13.60269,-9.6854 l 19.83801,-43.78197 3.40516,24.20452 a 14.375366,14.375366 0 0 0 11.35654,9.65845 l 25.58816,4.15987 a 14.375366,14.375366 0 0 0 13.80035,-5.55249 l 25.37252,-33.66531 18.67899,65.10244 a 14.420289,14.420289 0 0 0 12.9558,10.39519 l 32.82974,2.01255 c 0.2965,0 0.59299,0 0.89846,0 a 14.375366,14.375366 0 0 0 14.2406,-16.46878 z"
     id="path42"
     inkscape:connector-curvature="0"
     style="fill:#fed206;stroke:#231f20;stroke-width:5.39076233px;stroke-linecap:round;stroke-linejoin:round" />
  <path
     class="cls-3"
     d="M193.91,778.81c-25.33,38.67,18,36,24,35.33,5.5-.61,16-5.7,11.07,1.17,63.83-79.89,58.9-192.48,58.9-192.48l-43.76,53.32"
     id="path44" />
  <path
     class="cls-6"
     d="M273.72,726.21s-19.24,6.78-56.6-9.46L238.78,683l19-24.87"
     id="path46" />
  <path
     class="cls-1"
     d="M273.93,725.48l-.55-.72.34,1.45s-15.36,5.4-45.27-5c-8.24,15-19,32.84-32.61,53.67l-1.93,4c-5.6,8.54-7.84,15.06-7.87,20,.86,16.52,27.27,14.84,31.86,14.33,4.78-.53,13.34-4.43,12.27-1,.3.5,0,1.45-1.18,3.09C251.37,787.29,265.28,755.27,273.93,725.48Z"
     id="path48" />
  <path
     class="cls-1"
     d="M636.36,723.21c-9.45,46.83-39.44,83.7-48.44,130.89-3.77,19.73-2.7,36.37,20.66,36.37,82-7,156.08-158.91,156.08-158.91q3.34-9.88,5.91-19.53"
     id="path50" />
  <path
     class="cls-6"
     d="M749.66,511.07c25.82,37.25,45,107.41,58.79,173.44.64,8.32-4.86,16-22.38,20.75l-4,1.58C730,723.91,643.86,725.6,603.36,720c13.5-34.14,25.5-95.89,25.5-95.89"
     id="path52" />
  <path
     class="cls-7"
     d="M761,532.74a176.74,176.74,0,0,0-10.59-21.29l-.78-.38c-45.37-27.89-107.48,15.21-142.77,42-45.84,34.81-85.65,76.15-143.65,90.18-56.69,13.72-115.64,1.85-161.43-34.69-5.33,5.11-10.93,11-16.63,17.46l3.89,3c42.18,40.66,102.94,52.93,159.14,43.66,60.12-9.92,112.52-44.22,156.44-85.08C625.24,568.15,705.51,503.07,761,532.74Z"
     id="path54" />
</svg>
